<?xml version="1.0" encoding="utf-8"?>
<!-- Generator: Adobe Illustrator 16.0.4, SVG Export Plug-In . SVG Version: 6.00 Build 0)  -->
<!DOCTYPE svg PUBLIC "-//W3C//DTD SVG 1.1//EN" "http://www.w3.org/Graphics/SVG/1.1/DTD/svg11.dtd">
<svg version="1.1" xmlns="http://www.w3.org/2000/svg" xmlns:xlink="http://www.w3.org/1999/xlink" x="0px" y="0px" width="192px"
	 height="191.992px" viewBox="0 0 192 191.992" enable-background="new 0 0 192 191.992" xml:space="preserve">
<g id="home" display="none">
	<g id="Layer_7" display="inline">
	</g>
	<g display="inline">
		<path fill="#C3C4C6" d="M139.208,91.673c0,26.223-21.251,47.47-47.471,47.47c-26.216,0-47.471-21.248-47.471-47.47
			c0-26.215,21.254-47.471,47.471-47.471C117.957,44.203,139.208,65.458,139.208,91.673z"/>
		<path fill="#FFFFFF" d="M94.882,63.734c-11.787,0-21.347,9.56-21.347,21.345c-0.001,4.723,1.55,9.076,4.148,12.612l-9.616,10.482
			c-1.966,2.139-1.822,5.467,0.317,7.43c1.012,0.932,2.288,1.389,3.558,1.389c1.424,0,2.843-0.575,3.881-1.703l10.003-10.9
			c2.754,1.295,5.81,2.037,9.053,2.04c11.791-0.002,21.346-9.561,21.346-21.35C116.226,73.294,106.673,63.734,94.882,63.734z
			 M94.878,100.582c-8.556,0.001-15.494-6.942-15.494-15.504c0-8.556,6.936-15.495,15.497-15.496c8.56,0,15.5,6.94,15.502,15.496
			C110.384,93.639,103.44,100.582,94.878,100.582z"/>
	</g>
</g>
<g id="hover_states">
	<g id="Layer_7_copy">
	</g>
	<g>
		<path fill="#26A9E0" d="M139.208,91.673c0,26.223-21.251,47.47-47.471,47.47c-26.216,0-47.471-21.248-47.471-47.47
			c0-26.215,21.254-47.471,47.471-47.471C117.957,44.203,139.208,65.458,139.208,91.673z"/>
		<path fill="#FFFFFF" d="M94.882,63.734c-11.787,0-21.347,9.56-21.347,21.345c-0.001,4.723,1.55,9.076,4.148,12.612l-9.616,10.482
			c-1.966,2.139-1.822,5.467,0.317,7.43c1.012,0.932,2.288,1.389,3.558,1.389c1.424,0,2.843-0.575,3.881-1.703l10.003-10.9
			c2.754,1.295,5.81,2.037,9.053,2.04c11.791-0.002,21.346-9.561,21.346-21.35C116.226,73.294,106.673,63.734,94.882,63.734z
			 M94.878,100.582c-8.556,0.001-15.494-6.942-15.494-15.504c0-8.556,6.936-15.495,15.497-15.496c8.56,0,15.5,6.94,15.502,15.496
			C110.384,93.639,103.44,100.582,94.878,100.582z"/>
	</g>
</g>
</svg>
